M48
;Layer_Color=9474304
;FILE_FORMAT=4:4
METRIC,LZ
;TYPE=PLATED
T01F00S00C0.3000
T02F00S00C1.1001
T03F00S00C1.7000
T04F00S00C4.0000
%
T01
X00906Y00118
X0095723Y0009555
X00859Y00118
X00354Y00135
X00307001Y00117
X0037Y00083
Y00067
X0022936Y0008636
X0025855Y00003041
X0012614Y0012135
X00043Y00291
X00223Y00333
X00261Y00334
X0026Y00223
X00224
X00357Y00207
Y00184
X00373271Y00196992
X00389Y00208
Y00184
X0086Y00242
X0090649Y0024262
X0095704Y00243358
T02
X0072644Y0007874
Y0011684
Y0015494
X0047244
Y0011684
Y0007874
Y0023114
Y0026924
Y0030734
X0072644
Y0026924
Y0023114
T03
X01030275Y00162865
X-0000254Y001651
Y002032
X01030275Y00200965
T04
X0103124Y0
X0
Y0036576
X0103124Y0036957
M30
